<svg viewBox="0 0 254 66" fill="none" xmlns="http://www.w3.org/2000/svg">
  <path d="M137.73 43.5802H122.835V20.183H125.696V40.8245H137.73V43.5802Z" fill="#4D4D4F"></path>
  <path d="M195.114 23.6884L191.303 34.1094H198.851L195.114 23.6884ZM190.332 36.7701L187.841 43.5802H184.737L193.573 20.183H196.803L205.47 43.5802H202.271L199.812 36.7701H190.343H190.332Z" fill="#4D4D4F"></path>
  <path d="M210.821 23.065V40.9718H216.616C220.934 40.9718 224.301 38.3112 224.301 32.0078C224.301 25.7045 220.892 23.0755 216.616 23.0755H210.821V23.065ZM207.96 20.3304H216.627C223.098 20.3304 227.246 24.7437 227.246 31.9973C227.246 39.2508 223.098 43.7276 216.627 43.7276H207.96V20.3304Z" fill="#4D4D4F"></path>
  <path d="M250.66 31.9271C250.66 26.5318 246.817 22.4879 241.898 22.4879C236.979 22.4879 233.137 26.6374 233.137 31.9271C233.137 37.2168 237.074 41.3662 241.898 41.3662C246.722 41.3662 250.66 37.2168 250.66 31.9271ZM253.489 31.9271C253.489 38.7372 248.295 44.1325 241.898 44.1325C235.501 44.1325 230.297 38.7689 230.297 31.9271C230.297 25.0853 235.491 19.7533 241.898 19.7533C248.306 19.7533 253.489 24.9797 253.489 31.9271Z" fill="#4D4D4F"></path>
  <path d="M48.0556 39.3614C45.6066 44.9678 40.0118 48.8955 33.4881 48.8955C24.7159 48.8955 17.5905 41.7792 17.5905 33.0053C17.5905 24.2313 24.7053 17.1045 33.4881 17.1045C39.959 17.1045 45.5221 20.9688 48.0028 26.5225L62.982 18.192C58.0312 6.23996 47.2428 0 33.4986 0C15.2681 0 0.5 14.7711 0.5 33.0053C0.5 51.2395 15.2681 66 33.4986 66C47.3061 66 59.1185 57.5217 64.0482 45.4852L48.0662 39.3719L48.0556 39.3614Z" fill="#E32929"></path>
  <path d="M48.056 39.3779C46.2509 43.4957 42.7674 46.7054 38.4499 48.1202C38.4499 48.1202 38.4394 48.1202 38.4288 48.1202C38.4077 48.1202 38.3971 48.1308 38.376 48.1413C38.376 48.1413 38.3549 48.1413 38.3444 48.1413C38.3127 48.1413 38.2916 48.1625 38.2705 48.1625C38.2599 48.1625 38.2388 48.1624 38.2282 48.173C38.2177 48.173 38.2071 48.173 38.186 48.1836C38.1755 48.1836 38.1543 48.1836 38.1438 48.1941H38.1016C38.1016 48.1941 38.0488 48.2258 38.0277 48.2258C38.0066 48.2258 37.9749 48.2364 37.9538 48.2469H37.9327C37.9116 48.2469 37.8799 48.2575 37.8588 48.268C37.7954 48.2892 37.7321 48.2997 37.6793 48.3208C36.4865 48.6481 35.2303 48.8276 33.9319 48.8699C33.8685 48.8699 33.8052 48.8699 33.7313 48.8699C33.7313 48.8699 33.7313 48.8699 33.7102 48.8699C33.6891 48.8699 33.6574 48.8699 33.6363 48.8699H33.5202C24.7374 48.8699 17.6226 41.7536 17.6226 32.969C17.6226 24.1845 24.7374 17.0682 33.5202 17.0682C39.9911 17.0682 45.5542 20.9326 48.0349 26.4862C48.9216 28.4606 49.4072 30.6568 49.4072 32.9585C49.4072 35.2602 48.9322 37.3719 48.0772 39.3251L48.056 39.3779ZM51.5185 33.0113C51.5185 30.3295 50.9273 27.7849 49.8823 25.4938C47.0321 19.2855 40.7617 14.9777 33.4885 14.9777C23.534 14.9777 15.4586 23.0548 15.4586 33.0113C15.4586 42.9678 23.534 51.0449 33.4885 51.0449C40.9095 51.0449 47.2854 46.5576 50.0512 40.1381C50.9907 37.9526 51.5185 35.5453 51.5185 33.0113Z" fill="#FFC880"></path>
  <path d="M49.385 33.0041C49.385 41.7886 42.2701 48.8944 33.4874 48.8944C24.7047 48.8944 17.6003 41.7781 17.6003 33.0041C17.6003 24.2301 24.7152 17.1138 33.4874 17.1138C42.2596 17.1138 49.385 24.2301 49.385 33.0041Z" fill="#FCB521"></path>
  <path d="M83.4909 44.1325C77.0833 44.1325 71.9002 38.6738 71.9002 31.9271C71.9002 25.1803 77.0939 19.7533 83.4909 19.7533C88.8112 19.7533 92.7275 22.9208 94.2054 27.5454H91.2075C89.9302 24.6102 87.2911 22.4879 83.4909 22.4879C78.6667 22.4879 74.7293 26.7746 74.7293 31.9271C74.7293 37.0795 78.6773 41.3662 83.4909 41.3662C86.9322 41.3662 89.7929 39.4129 91.2075 36.3088H94.2054C92.622 41.06 88.5051 44.1325 83.4909 44.1325Z" fill="#4D4D4F"></path>
  <path d="M116.491 31.9271C116.491 26.5318 112.649 22.4879 107.73 22.4879C102.811 22.4879 98.9682 26.6374 98.9682 31.9271C98.9682 37.2168 102.916 41.3662 107.73 41.3662C112.543 41.3662 116.491 37.2168 116.491 31.9271ZM119.32 31.9271C119.32 38.7372 114.127 44.1325 107.73 44.1325C101.333 44.1325 96.1285 38.7689 96.1285 31.9271C96.1285 25.0853 101.322 19.7533 107.73 19.7533C114.137 19.7533 119.32 24.9797 119.32 31.9271Z" fill="#4D4D4F"></path>
  <path d="M157.904 31.9271C157.904 26.5318 154.061 22.4879 149.142 22.4879C144.223 22.4879 140.38 26.6374 140.38 31.9271C140.38 37.2168 144.328 41.3662 149.142 41.3662C153.956 41.3662 157.904 37.2168 157.904 31.9271ZM160.733 31.9271C160.733 38.7372 155.539 44.1325 149.142 44.1325C142.745 44.1325 137.541 38.7689 137.541 31.9271C137.541 25.0853 142.734 19.7533 149.142 19.7533C155.549 19.7533 160.733 24.9797 160.733 31.9271Z" fill="#4D4D4F"></path>
  <path d="M174.971 31.7245C177.737 31.7245 179.553 30.0668 179.553 27.4061C179.553 24.3759 177.727 23.0561 174.866 23.0561H167.381V31.7245H174.961H174.971ZM182.223 43.7293H179.321C179.046 43.0852 178.877 42.2828 178.877 41.2059V38.0067C178.877 35.7472 177.695 34.5013 175.035 34.5013H167.381V43.7398H164.521V20.3426H174.866C179.648 20.3426 182.456 23.2462 182.456 27.4273C182.456 29.919 181.242 31.9462 179.247 33.0865C180.83 34.0368 181.706 35.6522 181.706 38.0067V40.9102C181.706 41.7866 181.938 43.0641 182.213 43.7398" fill="#4D4D4F"></path>
</svg>