<svg width="48" height="48" viewBox="0 0 48 48" fill="none" xmlns="http://www.w3.org/2000/svg">
<path fill-rule="evenodd" clip-rule="evenodd" d="M13.7053 0H34.2947C39.0316 0 40.8 0.505263 42.5053 1.45263C44.2105 2.4 45.6 3.72632 46.5474 5.49474C47.4947 7.26316 48 8.96842 48 13.7053V34.2947C48 39.0316 47.4947 40.8 46.5474 42.5053C45.6 44.2737 44.2737 45.6 42.5053 46.5474C40.7368 47.4947 39.0316 48 34.2947 48H13.7053C8.96842 48 7.2 47.4947 5.49474 46.5474C3.72632 45.6 2.4 44.2737 1.45263 42.5053C0.505263 40.8 0 39.0947 0 34.2947V13.7053C0 8.96842 0.505263 7.2 1.45263 5.49474C2.4 3.78947 3.72632 2.4 5.49474 1.45263C7.26316 0.505263 8.90526 0 13.7053 0Z" fill="url(#paint0_radial_3_123)"></path>
<path d="M12 16.2947L4.67369 31.4526L4.61053 31.579H6.00001L12 19.0737L17.9368 31.5158V31.579H19.3263L12 16.2947ZM25.2 24.0632L25.8947 23.4947L23.8105 20.779V18.6947L25.2 20.4632L25.8947 19.8947L23.2421 16.3579L20.5263 19.8947L21.2842 20.4632L22.6105 18.6947V20.779L20.5263 23.4947L21.2842 24.0632L22.6105 22.2947V24.3789L20.5263 27.0947L21.2842 27.6632L22.6105 25.9579V31.579H23.8105V25.8947L25.2 27.6632L25.8947 27.0947L23.8105 24.3789V22.2947L25.2 24.0632ZM37.5158 24.4421C37.579 24.1895 37.579 23.9368 37.5158 23.6842L39.5368 20.2105L36 22.1684H35.6842C35.179 22.1684 34.7369 22.3579 34.3579 22.7368C33.979 23.1158 33.7895 23.5579 33.7895 24.0632C33.7895 24.1895 33.7895 24.3158 33.8526 24.4421L31.8316 27.9158L35.3053 25.8947C36.2526 26.0842 37.2632 25.4526 37.5158 24.4421ZM36.0632 24.4421C35.8105 24.6947 35.3684 24.6947 35.179 24.4421C35.0526 24.3158 34.9895 24.1895 34.9895 24C34.9895 23.8105 35.0526 23.6842 35.179 23.5579C35.3053 23.4316 35.4947 23.3684 35.6211 23.3684C35.8105 23.3684 35.9368 23.4316 36.0632 23.5579C36.1895 23.6842 36.2526 23.8105 36.2526 24C36.2526 24.1895 36.1895 24.3158 36.0632 24.4421ZM29.3684 23.0526C29.7474 20.1474 31.8316 18.0632 34.6737 17.6842H34.7368V16.4211H34.6105C31.0737 16.8632 28.4211 19.5158 27.979 23.0526V23.179H29.3684V23.0526Z" fill="white"></path>
<path d="M29.3684 24.9474V24.8842H27.9789V25.0105C28.421 28.5474 31.0737 31.2 34.6105 31.6421H34.7368V30.3789H34.6737C31.8316 29.9368 29.7474 27.8526 29.3684 24.9474ZM41.8737 24.9474C41.4947 27.7895 39.4105 29.9368 36.5684 30.3158H36.5053V31.5789H36.6316C40.1684 31.1368 42.8842 28.4842 43.2632 24.9474V24.8211H41.8737V24.9474ZM41.8737 23.0526V23.1158H43.2632V22.9895C42.8842 19.5158 40.1684 16.8632 36.6316 16.4211H36.5053V17.6842H36.5684C39.4105 18.0632 41.4947 20.1474 41.8737 23.0526Z" fill="white"></path>
<defs>
<radialGradient id="paint0_radial_3_123" cx="0" cy="0" r="1" gradientUnits="userSpaceOnUse" gradientTransform="translate(14.6665 42.3711) rotate(105.859) scale(53.0324 76.2277)">
<stop stop-color="#0BA0DF"></stop>
<stop offset="1" stop-color="#4B9305"></stop>
</radialGradient>
</defs>
</svg>